<svg width="500" height="390" viewBox="0 0 500 390" fill="none" xmlns="http://www.w3.org/2000/svg">
<g clip-path="url(#clip0_1643_356454)">
<rect width="500" height="390" fill="#E1E1E1"/>
<rect width="1280" height="1104" transform="translate(74 -482)" fill="white"/>
<circle cx="158" cy="-4" r="11.5" fill="white" stroke="#666666"/>
<path d="M186.604 -5.182V-3.85H181.006V0.686H187.162L186.946 2H179.494V-10.42H186.856V-9.106H181.006V-5.182H186.604ZM188.964 2V-4.282C188.964 -5.902 188.946 -6.712 188.928 -7.126H190.386C190.422 -6.874 190.44 -6.154 190.44 -5.83C190.872 -6.622 191.664 -7.306 192.996 -7.306C194.202 -7.306 194.994 -6.766 195.336 -5.74C195.732 -6.568 196.65 -7.306 198.036 -7.306C199.422 -7.306 200.772 -6.586 200.772 -4.192V2H199.296V-3.94C199.296 -5.056 198.936 -6.01 197.64 -6.01C196.218 -6.01 195.624 -4.822 195.624 -3.364V2H194.148V-4.012C194.148 -5.146 193.698 -5.992 192.51 -5.992C191.232 -5.992 190.44 -5.02 190.44 -3.202V2H188.964ZM209.646 -4.462V-0.0340001C209.646 0.596 209.7 1.514 209.772 2H208.422C208.368 1.676 208.296 1.19 208.296 0.596C207.936 1.514 207.018 2.162 205.524 2.162C203.292 2.162 202.626 0.65 202.626 -0.61C202.626 -1.978 203.508 -3.508 206.766 -3.508H208.17V-4.39C208.17 -5.254 207.918 -6.154 206.37 -6.154C205.056 -6.154 204.588 -5.542 204.444 -4.534H202.986C203.112 -6.064 203.994 -7.306 206.424 -7.306C208.332 -7.306 209.646 -6.532 209.646 -4.462ZM208.206 -2.23V-2.428H206.766C204.552 -2.428 204.138 -1.528 204.138 -0.7C204.138 0.2 204.678 0.938 205.83 0.938C207.63 0.938 208.206 -0.286 208.206 -2.23ZM212.273 2V-7.126H213.767V2H212.273ZM213.767 -9.178H212.273V-11.104H213.767V-9.178ZM217.88 2H216.386V-11.104H217.88V2ZM227.197 -11.104H228.691C227.233 -9.196 226.027 -6.46 226.027 -3.184C226.027 -0.178 226.963 2.612 228.691 4.97H227.197C225.901 3.278 224.641 0.362 224.641 -3.202C224.641 -6.64 225.973 -9.466 227.197 -11.104ZM237.343 -7.126V-0.574C237.343 0.56 237.361 1.568 237.379 2H235.939C235.885 1.748 235.867 1.19 235.867 0.542C235.453 1.532 234.517 2.162 233.185 2.162C231.763 2.162 230.395 1.478 230.395 -0.988V-7.126H231.871V-1.276C231.871 -0.0880001 232.249 0.866 233.635 0.866C234.931 0.866 235.831 -0.0160001 235.831 -2.032V-7.126H237.343ZM239.166 -0.646H240.642C240.804 0.416 241.578 0.992 242.694 0.992C243.954 0.992 244.44 0.326 244.44 -0.448C244.44 -1.276 243.864 -1.708 242.316 -2.122C240.084 -2.734 239.508 -3.544 239.508 -4.768C239.508 -5.974 240.336 -7.306 242.568 -7.306C244.764 -7.306 245.628 -6.082 245.754 -4.678H244.278C244.134 -5.416 243.756 -6.136 242.496 -6.136C241.47 -6.136 241.002 -5.65 241.002 -4.894C241.002 -4.21 241.344 -3.832 242.874 -3.436C245.196 -2.806 245.934 -2.032 245.934 -0.574C245.934 1.118 244.602 2.162 242.64 2.162C240.75 2.162 239.328 1.262 239.166 -0.646ZM254.958 -2.284H248.874C248.874 -0.448 249.648 0.92 251.25 0.92C252.726 0.92 253.176 -0.106 253.356 -0.574H254.814C254.526 0.56 253.626 2.18 251.178 2.18C248.334 2.18 247.362 -0.07 247.362 -2.59C247.362 -4.84 248.46 -7.306 251.268 -7.306C254.13 -7.306 254.958 -5.074 254.958 -2.968V-2.284ZM248.91 -3.364H253.482C253.446 -4.93 252.816 -6.1 251.232 -6.1C249.432 -6.1 249 -4.462 248.91 -3.364ZM256.939 2V-4.03C256.939 -5.488 256.921 -6.676 256.903 -7.126H258.361C258.397 -6.694 258.397 -6.118 258.397 -5.272C258.829 -6.406 259.837 -7.27 261.349 -7.288V-5.74C259.297 -5.668 258.433 -4.462 258.433 -2.482V2H256.939ZM272.6 3.8L272.762 4.88C271.844 5.384 270.53 5.6 269.09 5.6C264.554 5.6 262.43 2.108 262.43 -1.762C262.43 -6.064 265.04 -9.88 269.702 -9.88C273.752 -9.88 276.236 -7.162 276.236 -3.382C276.236 -0.07 274.814 1.982 272.654 1.982C271.628 1.982 270.998 1.478 270.872 0.578C270.332 1.604 269.342 1.982 268.37 1.982C267.056 1.982 265.976 1.028 265.976 -1.15C265.976 -4.21 267.578 -6.208 269.414 -6.208C270.602 -6.208 271.196 -5.578 271.322 -4.966L271.52 -6.028H272.87L272.042 -0.61C271.88 0.398 272.222 0.794 272.888 0.794C274.112 0.794 275.03 -0.7 275.03 -3.346C275.03 -6.532 273.014 -8.782 269.648 -8.782C265.688 -8.782 263.69 -5.488 263.69 -1.762C263.69 1.046 265.076 4.484 269.234 4.484C270.458 4.484 271.628 4.286 272.6 3.8ZM269.63 -5.02C268.082 -5.02 267.38 -3.112 267.38 -1.24C267.38 0.218 268.028 0.758 268.748 0.758C269.81 0.758 270.728 0.0199999 270.998 -2.428C271.178 -3.886 270.836 -5.02 269.63 -5.02ZM277.106 -5.902V-7.126H278.564V-9.772H280.058V-7.126H281.894V-5.902H280.058V-0.196C280.058 0.578 280.256 0.902 281.03 0.902C281.282 0.902 281.534 0.866 281.732 0.83V1.964C281.39 2.09 280.85 2.108 280.544 2.108C279.212 2.108 278.564 1.604 278.564 0.0919999V-5.902H277.106ZM290.466 -2.284H284.382C284.382 -0.448 285.156 0.92 286.758 0.92C288.234 0.92 288.684 -0.106 288.864 -0.574H290.322C290.034 0.56 289.134 2.18 286.686 2.18C283.842 2.18 282.87 -0.07 282.87 -2.59C282.87 -4.84 283.968 -7.306 286.776 -7.306C289.638 -7.306 290.466 -5.074 290.466 -2.968V-2.284ZM284.418 -3.364H288.99C288.954 -4.93 288.324 -6.1 286.74 -6.1C284.94 -6.1 284.508 -4.462 284.418 -3.364ZM291.69 -0.646H293.166C293.328 0.416 294.102 0.992 295.218 0.992C296.478 0.992 296.964 0.326 296.964 -0.448C296.964 -1.276 296.388 -1.708 294.84 -2.122C292.608 -2.734 292.032 -3.544 292.032 -4.768C292.032 -5.974 292.86 -7.306 295.092 -7.306C297.288 -7.306 298.152 -6.082 298.278 -4.678H296.802C296.658 -5.416 296.28 -6.136 295.02 -6.136C293.994 -6.136 293.526 -5.65 293.526 -4.894C293.526 -4.21 293.868 -3.832 295.398 -3.436C297.72 -2.806 298.458 -2.032 298.458 -0.574C298.458 1.118 297.126 2.162 295.164 2.162C293.274 2.162 291.852 1.262 291.69 -0.646ZM299.254 -5.902V-7.126H300.712V-9.772H302.206V-7.126H304.042V-5.902H302.206V-0.196C302.206 0.578 302.404 0.902 303.178 0.902C303.43 0.902 303.682 0.866 303.88 0.83V1.964C303.538 2.09 302.998 2.108 302.692 2.108C301.36 2.108 300.712 1.604 300.712 0.0919999V-5.902H299.254ZM307.34 2.018H305.864V-0.466H307.34V2.018ZM314.845 -0.916H316.339C315.979 0.866 314.845 2.18 312.667 2.18C310.111 2.18 308.815 0.47 308.815 -2.572C308.815 -5.218 310.147 -7.306 312.757 -7.306C315.187 -7.306 316.195 -5.632 316.321 -4.12H314.827C314.647 -5.164 314.071 -6.082 312.739 -6.082C311.065 -6.082 310.345 -4.624 310.345 -2.608C310.345 -0.268 311.191 0.956 312.721 0.956C313.981 0.956 314.521 0.164 314.845 -0.916ZM321.778 -7.306C324.352 -7.306 325.738 -5.344 325.738 -2.716C325.738 -0.07 324.586 2.162 321.652 2.162C318.826 2.162 317.692 -0.16 317.692 -2.662C317.692 -5.074 319.006 -7.306 321.778 -7.306ZM321.706 -6.064C320.086 -6.064 319.24 -4.678 319.24 -2.68C319.24 -0.592 320.104 0.92 321.742 0.92C323.452 0.92 324.19 -0.556 324.19 -2.698C324.19 -4.696 323.362 -6.064 321.706 -6.064ZM327.744 2V-4.282C327.744 -5.902 327.726 -6.712 327.708 -7.126H329.166C329.202 -6.874 329.22 -6.154 329.22 -5.83C329.652 -6.622 330.444 -7.306 331.776 -7.306C332.982 -7.306 333.774 -6.766 334.116 -5.74C334.512 -6.568 335.43 -7.306 336.816 -7.306C338.202 -7.306 339.552 -6.586 339.552 -4.192V2H338.076V-3.94C338.076 -5.056 337.716 -6.01 336.42 -6.01C334.998 -6.01 334.404 -4.822 334.404 -3.364V2H332.928V-4.012C332.928 -5.146 332.478 -5.992 331.29 -5.992C330.012 -5.992 329.22 -5.02 329.22 -3.202V2H327.744ZM342.563 4.97H341.069C342.527 3.062 343.733 0.326 343.733 -2.95C343.733 -5.938 342.779 -8.746 341.069 -11.104H342.563C343.841 -9.394 345.119 -6.496 345.119 -2.932C345.119 0.524 343.769 3.332 342.563 4.97Z" fill="#333333"/>
<circle cx="158" cy="44" r="11.5" fill="white" stroke="#666666"/>
<path d="M181.78 50V38.912H178.144V37.58H186.982V38.912H183.328V50H181.78ZM193.734 45.716H187.65C187.65 47.552 188.424 48.92 190.026 48.92C191.502 48.92 191.952 47.894 192.132 47.426H193.59C193.302 48.56 192.402 50.18 189.954 50.18C187.11 50.18 186.138 47.93 186.138 45.41C186.138 43.16 187.236 40.694 190.044 40.694C192.906 40.694 193.734 42.926 193.734 45.032V45.716ZM187.686 44.636H192.258C192.222 43.07 191.592 41.9 190.008 41.9C188.208 41.9 187.776 43.538 187.686 44.636ZM194.485 40.874H196.177C197.365 42.872 197.941 43.808 198.229 44.33H198.247C198.607 43.718 199.363 42.548 200.389 40.874H202.009L199.093 45.248L202.027 50H200.317C199.273 48.236 198.517 46.994 198.175 46.4H198.157C197.887 46.904 197.095 48.272 196.033 50H194.395L197.293 45.464L194.485 40.874ZM202.698 42.098V40.874H204.156V38.228H205.65V40.874H207.486V42.098H205.65V47.804C205.65 48.578 205.848 48.902 206.622 48.902C206.874 48.902 207.126 48.866 207.324 48.83V49.964C206.982 50.09 206.442 50.108 206.136 50.108C204.804 50.108 204.156 49.604 204.156 48.092V42.098H202.698ZM213.503 50V43.718C213.503 42.098 213.485 41.288 213.467 40.874H214.925C214.961 41.126 214.979 41.846 214.979 42.17C215.411 41.378 216.203 40.694 217.535 40.694C218.741 40.694 219.533 41.234 219.875 42.26C220.271 41.432 221.189 40.694 222.575 40.694C223.961 40.694 225.311 41.414 225.311 43.808V50H223.835V44.06C223.835 42.944 223.475 41.99 222.179 41.99C220.757 41.99 220.163 43.178 220.163 44.636V50H218.687V43.988C218.687 42.854 218.237 42.008 217.049 42.008C215.771 42.008 214.979 42.98 214.979 44.798V50H213.503ZM234.919 45.716H228.835C228.835 47.552 229.609 48.92 231.211 48.92C232.687 48.92 233.137 47.894 233.317 47.426H234.775C234.487 48.56 233.587 50.18 231.139 50.18C228.295 50.18 227.323 47.93 227.323 45.41C227.323 43.16 228.421 40.694 231.229 40.694C234.091 40.694 234.919 42.926 234.919 45.032V45.716ZM228.871 44.636H233.443C233.407 43.07 232.777 41.9 231.193 41.9C229.393 41.9 228.961 43.538 228.871 44.636ZM236.143 47.354H237.619C237.781 48.416 238.555 48.992 239.671 48.992C240.931 48.992 241.417 48.326 241.417 47.552C241.417 46.724 240.841 46.292 239.293 45.878C237.061 45.266 236.485 44.456 236.485 43.232C236.485 42.026 237.313 40.694 239.545 40.694C241.741 40.694 242.605 41.918 242.731 43.322H241.255C241.111 42.584 240.733 41.864 239.473 41.864C238.447 41.864 237.979 42.35 237.979 43.106C237.979 43.79 238.321 44.168 239.851 44.564C242.173 45.194 242.911 45.968 242.911 47.426C242.911 49.118 241.579 50.162 239.617 50.162C237.727 50.162 236.305 49.262 236.143 47.354ZM244.176 47.354H245.652C245.814 48.416 246.588 48.992 247.704 48.992C248.964 48.992 249.45 48.326 249.45 47.552C249.45 46.724 248.874 46.292 247.326 45.878C245.094 45.266 244.518 44.456 244.518 43.232C244.518 42.026 245.346 40.694 247.578 40.694C249.774 40.694 250.638 41.918 250.764 43.322H249.288C249.144 42.584 248.766 41.864 247.506 41.864C246.48 41.864 246.012 42.35 246.012 43.106C246.012 43.79 246.354 44.168 247.884 44.564C250.206 45.194 250.944 45.968 250.944 47.426C250.944 49.118 249.612 50.162 247.65 50.162C245.76 50.162 244.338 49.262 244.176 47.354ZM259.322 43.538V47.966C259.322 48.596 259.376 49.514 259.448 50H258.098C258.044 49.676 257.972 49.19 257.972 48.596C257.612 49.514 256.694 50.162 255.2 50.162C252.968 50.162 252.302 48.65 252.302 47.39C252.302 46.022 253.184 44.492 256.442 44.492H257.846V43.61C257.846 42.746 257.594 41.846 256.046 41.846C254.732 41.846 254.264 42.458 254.12 43.466H252.662C252.788 41.936 253.67 40.694 256.1 40.694C258.008 40.694 259.322 41.468 259.322 43.538ZM257.882 45.77V45.572H256.442C254.228 45.572 253.814 46.472 253.814 47.3C253.814 48.2 254.354 48.938 255.506 48.938C257.306 48.938 257.882 47.714 257.882 45.77ZM269.005 43.52V49.298C269.005 52.16 267.853 53.762 265.081 53.762C262.417 53.762 261.607 52.322 261.481 51.026H262.957C263.173 52.052 263.983 52.538 265.153 52.538C267.097 52.538 267.547 51.26 267.547 49.262V48.524C267.079 49.532 266.287 50.018 264.865 50.018C262.723 50.018 261.337 48.218 261.337 45.392C261.337 42.44 262.975 40.694 265.081 40.694C266.521 40.694 267.259 41.288 267.511 41.99C267.511 41.594 267.547 41.072 267.583 40.874H269.041C269.023 41.306 269.005 42.278 269.005 43.52ZM262.885 45.374C262.885 47.498 263.785 48.722 265.225 48.722C266.971 48.722 267.583 47.624 267.583 45.338C267.583 43.052 267.079 41.99 265.315 41.99C263.803 41.99 262.885 43.25 262.885 45.374ZM278.601 45.716H272.517C272.517 47.552 273.291 48.92 274.893 48.92C276.369 48.92 276.819 47.894 276.999 47.426H278.457C278.169 48.56 277.269 50.18 274.821 50.18C271.977 50.18 271.005 47.93 271.005 45.41C271.005 43.16 272.103 40.694 274.911 40.694C277.773 40.694 278.601 42.926 278.601 45.032V45.716ZM272.553 44.636H277.125C277.089 43.07 276.459 41.9 274.875 41.9C273.075 41.9 272.643 43.538 272.553 44.636ZM287.279 36.896H288.773C287.315 38.804 286.109 41.54 286.109 44.816C286.109 47.822 287.045 50.612 288.773 52.97H287.279C285.983 51.278 284.723 48.362 284.723 44.798C284.723 41.36 286.055 38.534 287.279 36.896ZM297.267 37.94L297.069 39.236H292.173C292.083 40.172 291.831 42.224 291.705 42.962C292.155 42.44 292.911 41.99 294.117 41.99C296.349 41.99 297.627 43.574 297.627 45.914C297.627 48.254 296.421 50.162 293.667 50.162C291.507 50.162 290.121 49.064 289.869 46.976H291.363C291.597 48.074 292.209 48.938 293.703 48.938C295.413 48.938 296.079 47.714 296.079 45.986C296.079 44.348 295.359 43.25 293.775 43.25C292.515 43.25 291.849 43.862 291.471 44.708L290.139 44.474C290.391 43.07 290.787 39.884 290.967 37.94H297.267ZM303.176 50.18C300.782 50.18 299.36 48.632 299.36 46.58C299.36 44.816 300.494 43.934 301.358 43.556C300.404 43.106 299.792 42.188 299.792 40.964C299.792 39.11 301.07 37.796 303.338 37.796C305.354 37.796 306.74 38.984 306.74 40.91C306.74 42.26 306.056 43.106 305.138 43.484C306.146 43.862 307.136 44.87 307.136 46.526C307.136 48.812 305.588 50.18 303.176 50.18ZM303.266 48.974C304.76 48.974 305.624 48.02 305.624 46.562C305.624 44.978 304.67 44.168 303.248 44.168C301.538 44.168 300.872 45.248 300.872 46.526C300.872 47.858 301.7 48.974 303.266 48.974ZM303.266 38.984C301.898 38.984 301.25 39.812 301.25 40.964C301.25 42.134 301.898 42.962 303.302 42.962C304.508 42.962 305.3 42.314 305.3 41.018C305.3 39.722 304.472 38.984 303.266 38.984ZM308.082 37.94H315.588V39.164C313.482 42.08 311.718 46.238 310.908 50H309.324C310.134 46.022 312.222 41.756 314.022 39.236H308.082V37.94ZM316.218 44.708H320.592V46.04H316.218V44.708ZM321.459 37.94H328.965V39.164C326.859 42.08 325.095 46.238 324.285 50H322.701C323.511 46.022 325.599 41.756 327.399 39.236H321.459V37.94ZM335.851 50H334.429V46.814H329.011V45.428L333.961 37.94H335.851V45.554H337.255L337.111 46.814H335.851V50ZM334.429 45.554V42.134C334.429 41.144 334.393 39.902 334.465 39.164C333.745 40.46 331.567 43.772 330.469 45.554H334.429ZM346.063 37.94L345.865 39.236H340.969C340.879 40.172 340.627 42.224 340.501 42.962C340.951 42.44 341.707 41.99 342.913 41.99C345.145 41.99 346.423 43.574 346.423 45.914C346.423 48.254 345.217 50.162 342.463 50.162C340.303 50.162 338.917 49.064 338.665 46.976H340.159C340.393 48.074 341.005 48.938 342.499 48.938C344.209 48.938 344.875 47.714 344.875 45.986C344.875 44.348 344.155 43.25 342.571 43.25C341.311 43.25 340.645 43.862 340.267 44.708L338.935 44.474C339.187 43.07 339.583 39.884 339.763 37.94H346.063ZM348.087 44.708H352.461V46.04H348.087V44.708ZM357.879 50.18C355.485 50.18 354.063 48.632 354.063 46.58C354.063 44.816 355.197 43.934 356.061 43.556C355.107 43.106 354.495 42.188 354.495 40.964C354.495 39.11 355.773 37.796 358.041 37.796C360.057 37.796 361.443 38.984 361.443 40.91C361.443 42.26 360.759 43.106 359.841 43.484C360.849 43.862 361.839 44.87 361.839 46.526C361.839 48.812 360.291 50.18 357.879 50.18ZM357.969 48.974C359.463 48.974 360.327 48.02 360.327 46.562C360.327 44.978 359.373 44.168 357.951 44.168C356.241 44.168 355.575 45.248 355.575 46.526C355.575 47.858 356.403 48.974 357.969 48.974ZM357.969 38.984C356.601 38.984 355.953 39.812 355.953 40.964C355.953 42.134 356.601 42.962 358.005 42.962C359.211 42.962 360.003 42.314 360.003 41.018C360.003 39.722 359.175 38.984 357.969 38.984ZM370.831 37.94L370.633 39.236H365.737C365.647 40.172 365.395 42.224 365.269 42.962C365.719 42.44 366.475 41.99 367.681 41.99C369.913 41.99 371.191 43.574 371.191 45.914C371.191 48.254 369.985 50.162 367.231 50.162C365.071 50.162 363.685 49.064 363.433 46.976H364.927C365.161 48.074 365.773 48.938 367.267 48.938C368.977 48.938 369.643 47.714 369.643 45.986C369.643 44.348 368.923 43.25 367.339 43.25C366.079 43.25 365.413 43.862 365.035 44.708L363.703 44.474C363.955 43.07 364.351 39.884 364.531 37.94H370.831ZM380.271 37.94L380.073 39.236H375.177C375.087 40.172 374.835 42.224 374.708 42.962C375.159 42.44 375.915 41.99 377.121 41.99C379.353 41.99 380.631 43.574 380.631 45.914C380.631 48.254 379.425 50.162 376.671 50.162C374.511 50.162 373.125 49.064 372.873 46.976H374.367C374.601 48.074 375.213 48.938 376.707 48.938C378.417 48.938 379.083 47.714 379.083 45.986C379.083 44.348 378.363 43.25 376.779 43.25C375.519 43.25 374.853 43.862 374.475 44.708L373.143 44.474C373.395 43.07 373.791 39.884 373.971 37.94H380.271ZM386.18 50.18C383.786 50.18 382.364 48.632 382.364 46.58C382.364 44.816 383.498 43.934 384.362 43.556C383.408 43.106 382.796 42.188 382.796 40.964C382.796 39.11 384.074 37.796 386.342 37.796C388.358 37.796 389.744 38.984 389.744 40.91C389.744 42.26 389.06 43.106 388.142 43.484C389.15 43.862 390.14 44.87 390.14 46.526C390.14 48.812 388.592 50.18 386.18 50.18ZM386.27 48.974C387.764 48.974 388.628 48.02 388.628 46.562C388.628 44.978 387.674 44.168 386.252 44.168C384.542 44.168 383.876 45.248 383.876 46.526C383.876 47.858 384.704 48.974 386.27 48.974ZM386.27 38.984C384.902 38.984 384.254 39.812 384.254 40.964C384.254 42.134 384.902 42.962 386.306 42.962C387.512 42.962 388.304 42.314 388.304 41.018C388.304 39.722 387.476 38.984 386.27 38.984ZM392.942 52.97H391.448C392.906 51.062 394.112 48.326 394.112 45.05C394.112 42.062 393.158 39.254 391.448 36.896H392.942C394.22 38.606 395.498 41.504 395.498 45.068C395.498 48.524 394.148 51.332 392.942 52.97Z" fill="#333333"/>
<circle cx="158" cy="92" r="8.5" fill="white" stroke="#0070C4" stroke-width="7"/>
<path d="M179.494 98V85.58H183.832C186.064 85.58 187.468 86.714 187.468 88.64C187.468 90.278 186.442 90.998 185.686 91.232C186.55 91.538 187.864 92.348 187.864 94.328C187.864 96.704 186.136 98 183.67 98H179.494ZM181.006 90.692H183.472C185.236 90.692 185.938 89.99 185.938 88.748C185.938 87.614 185.2 86.804 183.598 86.804H181.006V90.692ZM181.006 91.952V96.776H183.544C185.11 96.776 186.298 96.02 186.298 94.346C186.298 92.852 185.344 91.952 183.4 91.952H181.006ZM193.422 88.694C195.996 88.694 197.382 90.656 197.382 93.284C197.382 95.93 196.23 98.162 193.296 98.162C190.47 98.162 189.336 95.84 189.336 93.338C189.336 90.926 190.65 88.694 193.422 88.694ZM193.35 89.936C191.73 89.936 190.884 91.322 190.884 93.32C190.884 95.408 191.748 96.92 193.386 96.92C195.096 96.92 195.834 95.444 195.834 93.302C195.834 91.304 195.006 89.936 193.35 89.936ZM198.25 90.098V88.874H199.708V86.228H201.202V88.874H203.038V90.098H201.202V95.804C201.202 96.578 201.4 96.902 202.174 96.902C202.426 96.902 202.678 96.866 202.876 96.83V97.964C202.534 98.09 201.994 98.108 201.688 98.108C200.356 98.108 199.708 97.604 199.708 96.092V90.098H198.25ZM204.539 84.896H206.033V90.188C206.465 89.306 207.383 88.694 208.751 88.694C210.083 88.694 211.613 89.378 211.613 91.97V98H210.137V92.222C210.137 90.836 209.597 90.008 208.265 90.008C206.789 90.008 206.033 90.98 206.033 92.798V98H204.539V84.896Z" fill="#333333"/>
<path d="M150.284 137H149.094V133.192C149.094 133.094 149.052 132.982 149.01 132.926L145.874 127.34H147.232C148.044 128.852 149.346 131.218 149.752 131.974C150.494 130.588 151.474 128.796 152.272 127.34H153.546L150.34 132.954C150.298 133.01 150.284 133.08 150.284 133.192V137ZM156.081 129.762C158.083 129.762 159.161 131.288 159.161 133.332C159.161 135.39 158.265 137.126 155.983 137.126C153.785 137.126 152.903 135.32 152.903 133.374C152.903 131.498 153.925 129.762 156.081 129.762ZM156.025 130.728C154.765 130.728 154.107 131.806 154.107 133.36C154.107 134.984 154.779 136.16 156.053 136.16C157.383 136.16 157.957 135.012 157.957 133.346C157.957 131.792 157.313 130.728 156.025 130.728ZM166.097 129.902V134.998C166.097 135.88 166.111 136.664 166.125 137H165.005C164.963 136.804 164.949 136.37 164.949 135.866C164.627 136.636 163.899 137.126 162.863 137.126C161.757 137.126 160.693 136.594 160.693 134.676V129.902H161.841V134.452C161.841 135.376 162.135 136.118 163.213 136.118C164.221 136.118 164.921 135.432 164.921 133.864V129.902H166.097ZM175.804 134.732H176.966C176.686 136.118 175.804 137.14 174.11 137.14C172.122 137.14 171.114 135.81 171.114 133.444C171.114 131.386 172.15 129.762 174.18 129.762C176.07 129.762 176.854 131.064 176.952 132.24H175.79C175.65 131.428 175.202 130.714 174.166 130.714C172.864 130.714 172.304 131.848 172.304 133.416C172.304 135.236 172.962 136.188 174.152 136.188C175.132 136.188 175.552 135.572 175.804 134.732ZM183.479 131.974V135.418C183.479 135.908 183.521 136.622 183.577 137H182.527C182.485 136.748 182.429 136.37 182.429 135.908C182.149 136.622 181.435 137.126 180.273 137.126C178.537 137.126 178.019 135.95 178.019 134.97C178.019 133.906 178.705 132.716 181.239 132.716H182.331V132.03C182.331 131.358 182.135 130.658 180.931 130.658C179.909 130.658 179.545 131.134 179.433 131.918H178.299C178.397 130.728 179.083 129.762 180.973 129.762C182.457 129.762 183.479 130.364 183.479 131.974ZM182.359 133.71V133.556H181.239C179.517 133.556 179.195 134.256 179.195 134.9C179.195 135.6 179.615 136.174 180.511 136.174C181.911 136.174 182.359 135.222 182.359 133.71ZM185.522 137V132.128C185.522 130.644 185.508 130.21 185.494 129.902H186.628C186.656 130.042 186.684 130.714 186.67 131.008C186.964 130.378 187.608 129.762 188.77 129.762C190.086 129.762 191.024 130.504 191.024 132.422V137H189.862V132.604C189.862 131.568 189.512 130.784 188.448 130.784C187.188 130.784 186.684 131.722 186.684 133.206V137H185.522ZM200.728 134.732H201.89C201.61 136.118 200.728 137.14 199.034 137.14C197.046 137.14 196.038 135.81 196.038 133.444C196.038 131.386 197.074 129.762 199.104 129.762C200.994 129.762 201.778 131.064 201.876 132.24H200.714C200.574 131.428 200.126 130.714 199.09 130.714C197.788 130.714 197.228 131.848 197.228 133.416C197.228 135.236 197.886 136.188 199.076 136.188C200.056 136.188 200.476 135.572 200.728 134.732ZM203.336 126.808H204.498V130.924C204.834 130.238 205.548 129.762 206.612 129.762C207.648 129.762 208.838 130.294 208.838 132.31V137H207.69V132.506C207.69 131.428 207.27 130.784 206.234 130.784C205.086 130.784 204.498 131.54 204.498 132.954V137H203.336V126.808ZM215.744 131.974V135.418C215.744 135.908 215.786 136.622 215.842 137H214.792C214.75 136.748 214.694 136.37 214.694 135.908C214.414 136.622 213.7 137.126 212.538 137.126C210.802 137.126 210.284 135.95 210.284 134.97C210.284 133.906 210.97 132.716 213.504 132.716H214.596V132.03C214.596 131.358 214.4 130.658 213.196 130.658C212.174 130.658 211.81 131.134 211.698 131.918H210.564C210.662 130.728 211.348 129.762 213.238 129.762C214.722 129.762 215.744 130.364 215.744 131.974ZM214.624 133.71V133.556H213.504C211.782 133.556 211.46 134.256 211.46 134.9C211.46 135.6 211.88 136.174 212.776 136.174C214.176 136.174 214.624 135.222 214.624 133.71ZM217.788 137V132.128C217.788 130.644 217.774 130.21 217.76 129.902H218.894C218.922 130.042 218.95 130.714 218.936 131.008C219.23 130.378 219.874 129.762 221.036 129.762C222.352 129.762 223.29 130.504 223.29 132.422V137H222.128V132.604C222.128 131.568 221.778 130.784 220.714 130.784C219.454 130.784 218.95 131.722 218.95 133.206V137H217.788ZM230.823 131.96V136.454C230.823 138.68 229.927 139.926 227.771 139.926C225.699 139.926 225.069 138.806 224.971 137.798H226.119C226.287 138.596 226.917 138.974 227.827 138.974C229.339 138.974 229.689 137.98 229.689 136.426V135.852C229.325 136.636 228.709 137.014 227.603 137.014C225.937 137.014 224.859 135.614 224.859 133.416C224.859 131.12 226.133 129.762 227.771 129.762C228.891 129.762 229.465 130.224 229.661 130.77C229.661 130.462 229.689 130.056 229.717 129.902H230.851C230.837 130.238 230.823 130.994 230.823 131.96ZM226.062 133.402C226.062 135.054 226.763 136.006 227.883 136.006C229.241 136.006 229.717 135.152 229.717 133.374C229.717 131.596 229.325 130.77 227.953 130.77C226.777 130.77 226.062 131.75 226.062 133.402ZM238.286 133.668H233.554C233.554 135.096 234.156 136.16 235.402 136.16C236.55 136.16 236.9 135.362 237.04 134.998H238.174C237.95 135.88 237.25 137.14 235.346 137.14C233.134 137.14 232.378 135.39 232.378 133.43C232.378 131.68 233.232 129.762 235.416 129.762C237.642 129.762 238.286 131.498 238.286 133.136V133.668ZM233.582 132.828H237.138C237.11 131.61 236.62 130.7 235.388 130.7C233.988 130.7 233.652 131.974 233.582 132.828ZM242.264 130.854V129.902H243.398V127.844H244.56V129.902H245.988V130.854H244.56V135.292C244.56 135.894 244.714 136.146 245.316 136.146C245.512 136.146 245.708 136.118 245.862 136.09V136.972C245.596 137.07 245.176 137.084 244.938 137.084C243.902 137.084 243.398 136.692 243.398 135.516V130.854H242.264ZM247.155 126.808H248.317V130.924C248.653 130.238 249.367 129.762 250.431 129.762C251.467 129.762 252.657 130.294 252.657 132.31V137H251.509V132.506C251.509 131.428 251.089 130.784 250.053 130.784C248.905 130.784 248.317 131.54 248.317 132.954V137H247.155V126.808ZM254.702 137V129.902H255.864V137H254.702ZM255.864 128.306H254.702V126.808H255.864V128.306ZM257.271 134.942H258.419C258.545 135.768 259.147 136.216 260.015 136.216C260.995 136.216 261.373 135.698 261.373 135.096C261.373 134.452 260.925 134.116 259.721 133.794C257.985 133.318 257.537 132.688 257.537 131.736C257.537 130.798 258.181 129.762 259.917 129.762C261.625 129.762 262.297 130.714 262.395 131.806H261.247C261.135 131.232 260.841 130.672 259.861 130.672C259.063 130.672 258.699 131.05 258.699 131.638C258.699 132.17 258.965 132.464 260.155 132.772C261.961 133.262 262.535 133.864 262.535 134.998C262.535 136.314 261.499 137.126 259.973 137.126C258.503 137.126 257.397 136.426 257.271 134.942ZM272.496 131.974V135.418C272.496 135.908 272.538 136.622 272.594 137H271.544C271.502 136.748 271.446 136.37 271.446 135.908C271.166 136.622 270.452 137.126 269.29 137.126C267.554 137.126 267.036 135.95 267.036 134.97C267.036 133.906 267.722 132.716 270.256 132.716H271.348V132.03C271.348 131.358 271.152 130.658 269.948 130.658C268.926 130.658 268.562 131.134 268.45 131.918H267.316C267.414 130.728 268.1 129.762 269.99 129.762C271.474 129.762 272.496 130.364 272.496 131.974ZM271.376 133.71V133.556H270.256C268.534 133.556 268.212 134.256 268.212 134.9C268.212 135.6 268.632 136.174 269.528 136.174C270.928 136.174 271.376 135.222 271.376 133.71ZM273.477 130.854V129.902H274.611V127.844H275.773V129.902H277.201V130.854H275.773V135.292C275.773 135.894 275.927 136.146 276.529 136.146C276.725 136.146 276.921 136.118 277.075 136.09V136.972C276.809 137.07 276.389 137.084 276.151 137.084C275.115 137.084 274.611 136.692 274.611 135.516V130.854H273.477ZM286.865 131.974V135.418C286.865 135.908 286.907 136.622 286.963 137H285.913C285.871 136.748 285.815 136.37 285.815 135.908C285.535 136.622 284.821 137.126 283.659 137.126C281.923 137.126 281.405 135.95 281.405 134.97C281.405 133.906 282.091 132.716 284.625 132.716H285.717V132.03C285.717 131.358 285.521 130.658 284.317 130.658C283.295 130.658 282.931 131.134 282.819 131.918H281.685C281.783 130.728 282.469 129.762 284.359 129.762C285.843 129.762 286.865 130.364 286.865 131.974ZM285.745 133.71V133.556H284.625C282.903 133.556 282.581 134.256 282.581 134.9C282.581 135.6 283.001 136.174 283.897 136.174C285.297 136.174 285.745 135.222 285.745 133.71ZM293.516 137H292.354V126.808H293.516V137ZM300.496 131.974V135.418C300.496 135.908 300.538 136.622 300.594 137H299.544C299.502 136.748 299.446 136.37 299.446 135.908C299.166 136.622 298.452 137.126 297.29 137.126C295.554 137.126 295.036 135.95 295.036 134.97C295.036 133.906 295.722 132.716 298.256 132.716H299.348V132.03C299.348 131.358 299.152 130.658 297.948 130.658C296.926 130.658 296.562 131.134 296.45 131.918H295.316C295.414 130.728 296.1 129.762 297.99 129.762C299.474 129.762 300.496 130.364 300.496 131.974ZM299.376 133.71V133.556H298.256C296.534 133.556 296.212 134.256 296.212 134.9C296.212 135.6 296.632 136.174 297.528 136.174C298.928 136.174 299.376 135.222 299.376 133.71ZM301.477 130.854V129.902H302.611V127.844H303.773V129.902H305.201V130.854H303.773V135.292C303.773 135.894 303.927 136.146 304.529 136.146C304.725 136.146 304.921 136.118 305.075 136.09V136.972C304.809 137.07 304.389 137.084 304.151 137.084C303.115 137.084 302.611 136.692 302.611 135.516V130.854H301.477ZM311.868 133.668H307.136C307.136 135.096 307.738 136.16 308.984 136.16C310.132 136.16 310.482 135.362 310.622 134.998H311.756C311.532 135.88 310.832 137.14 308.928 137.14C306.716 137.14 305.96 135.39 305.96 133.43C305.96 131.68 306.814 129.762 308.998 129.762C311.224 129.762 311.868 131.498 311.868 133.136V133.668ZM307.164 132.828H310.72C310.692 131.61 310.202 130.7 308.97 130.7C307.57 130.7 307.234 131.974 307.164 132.828ZM313.409 137V132.31C313.409 131.176 313.395 130.252 313.381 129.902H314.515C314.543 130.238 314.543 130.686 314.543 131.344C314.879 130.462 315.663 129.79 316.839 129.776V130.98C315.243 131.036 314.571 131.974 314.571 133.514V137H313.409ZM325.857 126.808H327.005V135.152C327.005 135.838 327.019 136.566 327.033 137H325.899C325.885 136.818 325.857 136.37 325.857 135.95C325.479 136.776 324.905 137.126 323.743 137.126C321.909 137.126 320.985 135.572 320.985 133.458C320.985 131.414 322.049 129.762 323.981 129.762C325.129 129.762 325.661 130.224 325.857 130.616V126.808ZM322.189 133.416C322.189 135.138 322.931 136.132 324.051 136.132C325.577 136.132 325.899 134.97 325.899 133.304C325.899 131.344 325.325 130.77 324.121 130.77C322.945 130.77 322.189 131.722 322.189 133.416ZM334.02 131.974V135.418C334.02 135.908 334.062 136.622 334.118 137H333.068C333.026 136.748 332.97 136.37 332.97 135.908C332.69 136.622 331.976 137.126 330.814 137.126C329.078 137.126 328.56 135.95 328.56 134.97C328.56 133.906 329.246 132.716 331.78 132.716H332.872V132.03C332.872 131.358 332.676 130.658 331.472 130.658C330.45 130.658 330.086 131.134 329.974 131.918H328.84C328.938 130.728 329.624 129.762 331.514 129.762C332.998 129.762 334.02 130.364 334.02 131.974ZM332.9 133.71V133.556H331.78C330.058 133.556 329.736 134.256 329.736 134.9C329.736 135.6 330.156 136.174 331.052 136.174C332.452 136.174 332.9 135.222 332.9 133.71ZM335 130.854V129.902H336.134V127.844H337.296V129.902H338.724V130.854H337.296V135.292C337.296 135.894 337.45 136.146 338.052 136.146C338.248 136.146 338.444 136.118 338.598 136.09V136.972C338.332 137.07 337.912 137.084 337.674 137.084C336.638 137.084 336.134 136.692 336.134 135.516V130.854H335ZM345.392 133.668H340.66C340.66 135.096 341.262 136.16 342.508 136.16C343.656 136.16 344.006 135.362 344.146 134.998H345.28C345.056 135.88 344.356 137.14 342.452 137.14C340.24 137.14 339.484 135.39 339.484 133.43C339.484 131.68 340.338 129.762 342.522 129.762C344.748 129.762 345.392 131.498 345.392 133.136V133.668ZM340.688 132.828H344.244C344.216 131.61 343.726 130.7 342.494 130.7C341.094 130.7 340.758 131.974 340.688 132.828ZM350.377 137V129.902H351.539V137H350.377ZM351.539 128.306H350.377V126.808H351.539V128.306ZM353.577 137V132.128C353.577 130.644 353.563 130.21 353.549 129.902H354.683C354.711 130.042 354.739 130.714 354.725 131.008C355.019 130.378 355.663 129.762 356.825 129.762C358.141 129.762 359.079 130.504 359.079 132.422V137H357.917V132.604C357.917 131.568 357.567 130.784 356.503 130.784C355.243 130.784 354.739 131.722 354.739 133.206V137H353.577ZM363.701 129.902H364.947C366.053 133.346 366.627 135.068 366.809 135.922H366.823C367.033 135.138 367.663 132.968 368.629 129.902H369.833L367.341 137.322C366.627 139.478 366.039 139.926 364.779 139.926C364.625 139.926 364.331 139.912 364.163 139.87V138.876C364.331 138.904 364.597 138.918 364.779 138.918C365.633 138.918 365.899 138.232 366.235 137.224L363.701 129.902ZM373.642 129.762C375.644 129.762 376.722 131.288 376.722 133.332C376.722 135.39 375.826 137.126 373.544 137.126C371.346 137.126 370.464 135.32 370.464 133.374C370.464 131.498 371.486 129.762 373.642 129.762ZM373.586 130.728C372.326 130.728 371.668 131.806 371.668 133.36C371.668 134.984 372.34 136.16 373.614 136.16C374.944 136.16 375.518 135.012 375.518 133.346C375.518 131.792 374.874 130.728 373.586 130.728ZM383.658 129.902V134.998C383.658 135.88 383.672 136.664 383.686 137H382.566C382.524 136.804 382.51 136.37 382.51 135.866C382.188 136.636 381.46 137.126 380.424 137.126C379.318 137.126 378.254 136.594 378.254 134.676V129.902H379.402V134.452C379.402 135.376 379.696 136.118 380.774 136.118C381.782 136.118 382.482 135.432 382.482 133.864V129.902H383.658ZM385.706 137V132.31C385.706 131.176 385.692 130.252 385.678 129.902H386.812C386.84 130.238 386.84 130.686 386.84 131.344C387.176 130.462 387.96 129.79 389.136 129.776V130.98C387.54 131.036 386.868 131.974 386.868 133.514V137H385.706ZM394.934 139.814H393.786V131.988C393.786 131.022 393.786 130.336 393.758 129.902H394.906C394.92 130.14 394.934 130.644 394.934 131.05C395.284 130.322 395.984 129.762 397.146 129.762C398.7 129.762 399.806 130.98 399.806 133.332C399.806 135.726 398.532 137.112 396.866 137.112C395.844 137.112 395.242 136.706 394.934 136.146V139.814ZM398.602 133.374C398.602 131.666 397.916 130.77 396.782 130.77C395.326 130.77 394.892 131.764 394.892 133.472C394.892 135.04 395.186 136.118 396.712 136.118C397.902 136.118 398.602 135.138 398.602 133.374ZM401.36 137V132.31C401.36 131.176 401.346 130.252 401.332 129.902H402.466C402.494 130.238 402.494 130.686 402.494 131.344C402.83 130.462 403.614 129.79 404.79 129.776V130.98C403.194 131.036 402.522 131.974 402.522 133.514V137H401.36ZM408.601 129.762C410.603 129.762 411.681 131.288 411.681 133.332C411.681 135.39 410.785 137.126 408.503 137.126C406.305 137.126 405.423 135.32 405.423 133.374C405.423 131.498 406.445 129.762 408.601 129.762ZM408.545 130.728C407.285 130.728 406.627 131.806 406.627 133.36C406.627 134.984 407.299 136.16 408.573 136.16C409.903 136.16 410.477 135.012 410.477 133.346C410.477 131.792 409.833 130.728 408.545 130.728ZM414.638 137H413.49V130.854H412.398V129.902H413.49V129.02C413.49 127.76 413.924 126.696 415.408 126.696C415.632 126.696 415.912 126.724 416.08 126.78V127.774C415.94 127.732 415.744 127.704 415.506 127.704C414.876 127.704 414.638 128.124 414.638 128.964V129.902H415.968V130.854H414.638V137ZM417.096 137V129.902H418.258V137H417.096ZM418.258 128.306H417.096V126.808H418.258V128.306ZM421.457 137H420.295V126.808H421.457V137ZM428.927 133.668H424.195C424.195 135.096 424.797 136.16 426.043 136.16C427.191 136.16 427.541 135.362 427.681 134.998H428.815C428.591 135.88 427.891 137.14 425.987 137.14C423.775 137.14 423.019 135.39 423.019 133.43C423.019 131.68 423.873 129.762 426.057 129.762C428.283 129.762 428.927 131.498 428.927 133.136V133.668ZM424.223 132.828H427.779C427.751 131.61 427.261 130.7 426.029 130.7C424.629 130.7 424.293 131.974 424.223 132.828ZM431.387 137.014H430.239V135.082H431.387V137.014Z" fill="#333333"/>
<path d="M146 269C146 264.582 149.582 261 154 261H245C249.418 261 253 264.582 253 269V309C253 313.418 249.418 317 245 317H154C149.582 317 146 313.418 146 309V269Z" fill="#006DCC"/>
<path d="M178.796 292.1H180.896C181.256 293.72 182.376 294.56 184.316 294.56C186.376 294.56 187.196 293.62 187.196 292.36C187.196 291.02 186.516 290.3 183.796 289.64C180.436 288.84 179.336 287.66 179.336 285.72C179.336 283.6 180.916 281.92 184.056 281.92C187.436 281.92 188.816 283.84 188.996 285.7H186.916C186.676 284.54 185.956 283.54 183.976 283.54C182.376 283.54 181.476 284.26 181.476 285.52C181.476 286.76 182.216 287.26 184.616 287.82C188.596 288.78 189.316 290.32 189.316 292.14C189.316 294.44 187.616 296.18 184.176 296.18C180.676 296.18 179.096 294.32 178.796 292.1ZM199.442 288.96V293.72C199.442 294.64 199.522 295.72 199.582 296H197.702C197.622 295.78 197.562 295.3 197.542 294.74C197.182 295.4 196.402 296.24 194.462 296.24C192.042 296.24 191.022 294.68 191.022 293.12C191.022 290.84 192.822 289.8 195.842 289.8C196.502 289.8 197.142 289.8 197.522 289.8V288.98C197.522 288.12 197.242 287.08 195.442 287.08C193.842 287.08 193.562 287.86 193.382 288.66H191.502C191.642 287.18 192.542 285.58 195.502 285.58C198.042 285.6 199.442 286.62 199.442 288.96ZM197.522 291.42V291.1C197.222 291.1 196.482 291.1 195.982 291.1C194.002 291.1 193.002 291.66 193.002 293.02C193.002 294 193.682 294.74 194.882 294.74C197.222 294.74 197.522 293.18 197.522 291.42ZM200.892 285.82H202.992C204.272 289.86 205.252 292.94 205.532 294.2H205.552C205.812 292.96 206.872 289.92 208.272 285.82H210.272L206.552 296H204.412L200.892 285.82ZM220.218 291.3H213.138C213.138 293.22 214.098 294.64 215.778 294.64C217.298 294.64 217.778 293.88 218.098 293.16H220.078C219.678 294.46 218.578 296.24 215.718 296.24C212.478 296.24 211.138 293.66 211.138 291.04C211.138 287.98 212.698 285.58 215.818 285.58C219.138 285.58 220.238 288.2 220.238 290.44C220.238 290.76 220.238 291.02 220.218 291.3ZM213.198 289.96H218.258C218.238 288.38 217.478 287.1 215.798 287.1C214.098 287.1 213.358 288.28 213.198 289.96Z" fill="white"/>
<path d="M269 269C269 264.582 272.582 261 277 261H387C391.418 261 395 264.582 395 269V309C395 313.418 391.418 317 387 317H277C272.582 317 269 313.418 269 309V269Z" fill="#E0F1FF"/>
<path d="M312.03 292H314.11C313.51 294.4 311.71 296.18 308.49 296.18C304.29 296.18 302.19 293.04 302.19 289.12C302.19 285.34 304.31 281.92 308.57 281.92C311.93 281.92 313.71 283.84 314.11 286.16H312.05C311.59 284.74 310.63 283.6 308.49 283.6C305.55 283.6 304.35 286.28 304.35 289.04C304.35 291.7 305.47 294.5 308.57 294.5C310.69 294.5 311.57 293.26 312.03 292ZM324.081 288.96V293.72C324.081 294.64 324.161 295.72 324.221 296H322.341C322.261 295.78 322.201 295.3 322.181 294.74C321.821 295.4 321.041 296.24 319.101 296.24C316.681 296.24 315.661 294.68 315.661 293.12C315.661 290.84 317.461 289.8 320.481 289.8C321.141 289.8 321.781 289.8 322.161 289.8V288.98C322.161 288.12 321.881 287.08 320.081 287.08C318.481 287.08 318.201 287.86 318.021 288.66H316.141C316.281 287.18 317.181 285.58 320.141 285.58C322.681 285.6 324.081 286.62 324.081 288.96ZM322.161 291.42V291.1C321.861 291.1 321.121 291.1 320.621 291.1C318.641 291.1 317.641 291.66 317.641 293.02C317.641 294 318.321 294.74 319.521 294.74C321.861 294.74 322.161 293.18 322.161 291.42ZM327.024 296V288.4C327.024 287.52 327.024 286.62 327.004 285.82H328.904C328.964 286.12 328.984 287.12 328.984 287.42C329.384 286.6 330.204 285.58 332.144 285.58C334.084 285.58 335.544 286.8 335.544 289.48V296H333.584V289.72C333.584 288.26 333.024 287.26 331.524 287.26C329.744 287.26 328.984 288.56 328.984 290.56V296H327.024ZM344.67 292.86H346.63C346.21 294.6 345.03 296.24 342.35 296.24C339.47 296.24 337.75 294.2 337.75 290.98C337.75 288.08 339.43 285.58 342.47 285.58C345.51 285.58 346.51 287.76 346.63 289.04H344.69C344.45 288.04 343.83 287.2 342.43 287.2C340.73 287.2 339.77 288.66 339.77 290.92C339.77 293.2 340.71 294.64 342.39 294.64C343.59 294.64 344.29 293.98 344.67 292.86ZM357.142 291.3H350.062C350.062 293.22 351.022 294.64 352.702 294.64C354.222 294.64 354.702 293.88 355.022 293.16H357.002C356.602 294.46 355.502 296.24 352.642 296.24C349.402 296.24 348.062 293.66 348.062 291.04C348.062 287.98 349.622 285.58 352.742 285.58C356.062 285.58 357.162 288.2 357.162 290.44C357.162 290.76 357.162 291.02 357.142 291.3ZM350.122 289.96H355.182C355.162 288.38 354.402 287.1 352.722 287.1C351.022 287.1 350.282 288.28 350.122 289.96ZM361.367 296H359.387V281.34H361.367V296Z" fill="#045092"/>
</g>
<defs>
<clipPath id="clip0_1643_356454">
<rect width="500" height="390" fill="white"/>
</clipPath>
</defs>
</svg>
